# xmcd
#
# Track frame offsets: 
#        150
#        16900
#        31309
#        42624
#        67895
#
# Disc length: 1573 seconds
#
# Revision: 4
# Processed by: cddbd v1.5.2PL0 Copyright (c) Steve Scherf et al.
# Submitted via: ExactAudioCopy v0.99pb5
#
DISCID=38062305
DTITLE=Duffy - Mercy (Single)
DYEAR=2008
DGENRE=Soul
TTITLE0=Mercy
TTITLE1=Tomorrow
TTITLE2=Oh Boy
TTITLE3=Save It For Your Prayer
TTITLE4=Daten-CD
EXTD=
EXTT0=
EXTT1=
EXTT2=
EXTT3=
EXTT4=
PLAYORDER=
